<svg version="1.1" viewBox="0.0 0.0 320.0 133.33333333333334" fill="none" stroke="none" stroke-linecap="square" stroke-miterlimit="10" xmlns:xlink="http://www.w3.org/1999/xlink" xmlns="http://www.w3.org/2000/svg"><clipPath id="p.0"><path d="m0 0l320.0 0l0 133.33333l-320.0 0l0 -133.33333z" clip-rule="nonzero"/></clipPath><g clip-path="url(#p.0)"><path fill="#000000" fill-opacity="0.0" d="m0 0l320.0 0l0 133.33333l-320.0 0z" fill-rule="evenodd"/><path fill="#085fce" d="m30.19749 61.21391l0 0c0 -15.759682 12.775749 -28.53543 28.53543 -28.53543q14.267719 0 28.535435 0q0 14.267715 0 28.53543l0 0c0 15.7596855 -12.775749 28.535435 -28.535435 28.535435l0 0c-15.759682 0 -28.53543 -12.775749 -28.53543 -28.535435z" fill-rule="evenodd"/><path fill="#3de2ff" d="m19.61155 72.12105l0 0c0 -15.759682 12.775749 -28.53543 28.53543 -28.53543q14.267719 0 28.53543 0q0 14.267715 0 28.53543l0 0c0 15.759689 -12.775745 28.535439 -28.53543 28.535439l0 0c-15.759682 0 -28.53543 -12.775749 -28.53543 -28.535439z" fill-rule="evenodd"/><path fill="#434343" d="m103.070694 34.85302c-1.1345749 0 -2.1108398 0.40457916 -2.9287872 1.2137451c-0.8091583 0.80916595 -1.2137375 1.8074303 -1.2137375 2.9947891l0 54.882492c0 1.1873627 0.39138794 2.1856232 1.1741562 2.9947891c0.79156494 0.8091736 1.7810211 1.2137527 2.9683685 1.2137527l33.549118 0c1.1961517 0 2.1987915 -0.40457916 3.0079498 -1.2137527c0.8091583 -0.80916595 1.2137299 -1.8074265 1.2137299 -2.9947891c0 -1.1961517 -0.40457153 -2.1988144 -1.2137299 -3.0079803c-0.8091583 -0.80916595 -1.8117981 -1.2137451 -3.0079498 -1.2137451l-29.340637 0l0 -50.660767c0 -1.1873589 -0.40457916 -2.1856232 -1.2137299 -2.9947891c-0.8091583 -0.80916595 -1.8074112 -1.2137451 -2.994751 -1.2137451z" fill-rule="evenodd"/><path fill="#434343" d="m155.10873 35.895256c-1.4600067 0 -2.7177124 0.5277176 -3.7731323 1.583149c-1.0466156 1.0554352 -1.569931 2.31316 -1.569931 3.7731743c0 1.4600143 0.5233154 2.717739 1.569931 3.7731705c1.0554199 1.0466385 2.3131256 1.5699539 3.7731323 1.5699539c1.4599915 0 2.7176971 -0.5233154 3.773117 -1.5699539c1.0554199 -1.0554314 1.5831299 -2.3131561 1.5831299 -3.7731705c0 -1.4600143 -0.52770996 -2.717739 -1.5831299 -3.7731743c-1.0554199 -1.0554314 -2.3131256 -1.583149 -3.773117 -1.583149zm0 17.91597c-1.1873474 0 -2.1768036 0.37819672 -2.9683685 1.1345901c-0.7827759 0.75639343 -1.1741486 1.7590523 -1.1741486 3.0079803l0 36.069412c0 1.187355 0.39137268 2.1724243 1.1741486 2.9552078c0.79156494 0.7827835 1.7810211 1.1741714 2.9683685 1.1741714c1.2401123 0 2.2383575 -0.39138794 2.994751 -1.1741714c0.7563782 -0.7827835 1.1345673 -1.7678528 1.1345673 -2.9552078l0 -36.069412c0 -1.2489281 -0.3781891 -2.251587 -1.1345673 -3.0079803c-0.75639343 -0.75639343 -1.7546387 -1.1345901 -2.994751 -1.1345901z" fill-rule="evenodd"/><path fill="#434343" d="m196.93613 60.79027c2.752884 0 5.2067413 0.6640434 7.361557 1.9921303c2.1636047 1.3192902 3.878662 3.1135254 5.145157 5.3827057c1.2752991 2.2691803 1.9129486 4.863785 1.9129486 7.7838135c0 2.8584595 -0.63764954 5.453064 -1.9129486 7.7838135c-1.2664948 2.3219528 -2.9815521 4.1469727 -5.145157 5.4750595c-2.1548157 1.3192902 -4.608673 1.9789352 -7.361557 1.9789352c-2.708908 0 -5.1583557 -0.6596451 -7.348343 -1.9789352c-2.1811981 -1.3280869 -3.8962555 -3.1531067 -5.145172 -5.4750595c-1.2401123 -2.330742 -1.8601837 -4.9253464 -1.8601837 -7.7838135c0 -2.9200287 0.6200714 -5.514633 1.8601837 -7.7838135c1.2489166 -2.2691803 2.963974 -4.0634155 5.145172 -5.3827057c2.1899872 -1.3280869 4.639435 -1.9921303 7.348343 -1.9921303zm-18.166397 -25.937252c-1.1873474 0 -2.1723938 0.3781929 -2.9551697 1.1345901c-0.7827606 0.75639343 -1.1741486 1.7546539 -1.1741486 2.9947891l0 36.966522c0.052764893 4.265709 1.0510101 8.100449 2.994751 11.504219c1.9437256 3.4037704 4.5910645 6.0951233 7.9420166 8.074059c3.3509674 1.9701385 7.1372833 2.9552078 11.358948 2.9552078c4.2656555 0 8.073959 -0.9850693 11.4249115 -2.9552078c3.3509521 -1.9789352 6.01149 -4.670288 7.981613 -8.074059c1.970108 -3.4037704 2.9551697 -7.23851 2.9551697 -11.504219c0 -4.274498 -0.90589905 -8.100441 -2.7177124 -11.477829c-1.8029938 -3.3773804 -4.2744446 -6.0511475 -7.4143066 -8.021286c-3.131073 -1.9701385 -6.6711273 -2.9552116 -10.620163 -2.9552116c-3.183838 0 -6.112625 0.6640434 -8.786362 1.9921303c-2.6737213 1.3192902 -4.95607 3.1135254 -6.8470306 5.3827057l0 -21.887032c0 -1.2401352 -0.3781891 -2.2383957 -1.1345673 -2.9947891c-0.7563782 -0.75639725 -1.7590332 -1.1345901 -3.0079498 -1.1345901z" fill-rule="evenodd"/><path fill="#434343" d="m236.57014 35.895256c-1.4599915 0 -2.7176971 0.5277176 -3.773117 1.583149c-1.0466156 1.0554352 -1.569931 2.31316 -1.569931 3.7731743c0 1.4600143 0.5233154 2.717739 1.569931 3.7731705c1.0554199 1.0466385 2.3131256 1.5699539 3.773117 1.5699539c1.4600067 0 2.7177124 -0.5233154 3.7731323 -1.5699539c1.0554199 -1.0554314 1.5831299 -2.3131561 1.5831299 -3.7731705c0 -1.4600143 -0.52770996 -2.717739 -1.5831299 -3.7731743c-1.0554199 -1.0554314 -2.3131256 -1.583149 -3.7731323 -1.583149zm0 17.91597c-1.1873322 0 -2.1767883 0.37819672 -2.9683533 1.1345901c-0.7827759 0.75639343 -1.1741638 1.7590523 -1.1741638 3.0079803l0 36.069412c0 1.187355 0.39138794 2.1724243 1.1741638 2.9552078c0.79156494 0.7827835 1.7810211 1.1741714 2.9683533 1.1741714c1.2401276 0 2.2383728 -0.39138794 2.994751 -1.1741714c0.75639343 -0.7827835 1.1345825 -1.7678528 1.1345825 -2.9552078l0 -36.069412c0 -1.2489281 -0.3781891 -2.251587 -1.1345825 -3.0079803c-0.7563782 -0.75639343 -1.7546234 -1.1345901 -2.994751 -1.1345901z" fill-rule="evenodd"/><path fill="#434343" d="m276.20755 60.79027c2.7528992 0 5.211151 0.6640434 7.374756 1.9921303c2.1636047 1.3192902 3.8654785 3.1267166 5.105591 5.422287c1.2401123 2.2955627 1.8601685 4.903366 1.8601685 7.823395c0 2.8584595 -0.62005615 5.439865 -1.8601685 7.744232c-1.2401123 2.2955704 -2.941986 4.1073914 -5.105591 5.435478c-2.1636047 1.3192902 -4.6218567 1.9789352 -7.374756 1.9789352c-2.7088928 0 -5.1583557 -0.6596451 -7.348358 -1.9789352c-2.1811829 -1.3280869 -3.9094238 -3.1399078 -5.184723 -5.435478c-1.26651 -2.3043594 -1.8997498 -4.885765 -1.8997498 -7.744232c0 -2.9200287 0.63323975 -5.527832 1.8997498 -7.823395c1.2752991 -2.2955704 3.00354 -4.102997 5.184723 -5.422287c2.1900024 -1.3280869 4.6394653 -1.9921303 7.348358 -1.9921303zm0 -7.295677c-4.2216797 0 -8.021179 0.9850731 -11.398529 2.9552116c-3.3773193 1.9701385 -6.051056 4.657097 -8.021179 8.060867c-1.970108 3.4037704 -2.9551697 7.2429047 -2.9551697 11.51741c0 4.265709 0.90589905 8.08725 2.7177124 11.46463c1.8117981 3.377388 4.2832336 6.0555496 7.4143066 8.034485c3.131073 1.9701385 6.6711426 2.9552078 10.620148 2.9552078c3.9402466 0 7.475891 -0.9850693 10.606964 -2.9552078c1.9310303 -1.2170563 3.6109009 -2.698578 5.0396423 -4.444565l0 0l0 3.0197296c0 1.1873627 0.39138794 2.172432 1.1741333 2.9552078c0.7827759 0.7827835 1.7678528 1.1741714 2.9552002 1.1741714c1.1873169 0 2.1723938 -0.39138794 2.9551697 -1.1741714c0.78274536 -0.7827759 1.1741333 -1.7678452 1.1741333 -2.9552078l0 -18.07428c0 -4.2745056 -0.9850464 -8.11364 -2.9551697 -11.51741c-1.9701233 -3.4037704 -4.6306458 -6.0907288 -7.981598 -8.060867c-3.3509521 -1.9701385 -7.1328735 -2.9552116 -11.345764 -2.9552116z" fill-rule="evenodd"/><path stroke="#f3f3f3" stroke-width="1.0" stroke-linejoin="round" stroke-linecap="butt" d="m103.070694 34.85302c-1.1345749 0 -2.1108398 0.40457916 -2.9287872 1.2137451c-0.8091583 0.80916595 -1.2137375 1.8074303 -1.2137375 2.9947891l0 54.882492c0 1.1873627 0.39138794 2.1856232 1.1741562 2.9947891c0.79156494 0.8091736 1.7810211 1.2137527 2.9683685 1.2137527l33.549118 0c1.1961517 0 2.1987915 -0.40457916 3.0079498 -1.2137527c0.8091583 -0.80916595 1.2137299 -1.8074265 1.2137299 -2.9947891c0 -1.1961517 -0.40457153 -2.1988144 -1.2137299 -3.0079803c-0.8091583 -0.80916595 -1.8117981 -1.2137451 -3.0079498 -1.2137451l-29.340637 0l0 -50.660767c0 -1.1873589 -0.40457916 -2.1856232 -1.2137299 -2.9947891c-0.8091583 -0.80916595 -1.8074112 -1.2137451 -2.994751 -1.2137451z" fill-rule="evenodd"/><path stroke="#f3f3f3" stroke-width="1.0" stroke-linejoin="round" stroke-linecap="butt" d="m155.10873 35.895256c-1.4600067 0 -2.7177124 0.5277176 -3.7731323 1.583149c-1.0466156 1.0554352 -1.569931 2.31316 -1.569931 3.7731743c0 1.4600143 0.5233154 2.717739 1.569931 3.7731705c1.0554199 1.0466385 2.3131256 1.5699539 3.7731323 1.5699539c1.4599915 0 2.7176971 -0.5233154 3.773117 -1.5699539c1.0554199 -1.0554314 1.5831299 -2.3131561 1.5831299 -3.7731705c0 -1.4600143 -0.52770996 -2.717739 -1.5831299 -3.7731743c-1.0554199 -1.0554314 -2.3131256 -1.583149 -3.773117 -1.583149zm0 17.91597c-1.1873474 0 -2.1768036 0.37819672 -2.9683685 1.1345901c-0.7827759 0.75639343 -1.1741486 1.7590523 -1.1741486 3.0079803l0 36.069412c0 1.187355 0.39137268 2.1724243 1.1741486 2.9552078c0.79156494 0.7827835 1.7810211 1.1741714 2.9683685 1.1741714c1.2401123 0 2.2383575 -0.39138794 2.994751 -1.1741714c0.7563782 -0.7827835 1.1345673 -1.7678528 1.1345673 -2.9552078l0 -36.069412c0 -1.2489281 -0.3781891 -2.251587 -1.1345673 -3.0079803c-0.75639343 -0.75639343 -1.7546387 -1.1345901 -2.994751 -1.1345901z" fill-rule="evenodd"/><path stroke="#f3f3f3" stroke-width="1.0" stroke-linejoin="round" stroke-linecap="butt" d="m196.93613 60.79027c2.752884 0 5.2067413 0.6640434 7.361557 1.9921303c2.1636047 1.3192902 3.878662 3.1135254 5.145157 5.3827057c1.2752991 2.2691803 1.9129486 4.863785 1.9129486 7.7838135c0 2.8584595 -0.63764954 5.453064 -1.9129486 7.7838135c-1.2664948 2.3219528 -2.9815521 4.1469727 -5.145157 5.4750595c-2.1548157 1.3192902 -4.608673 1.9789352 -7.361557 1.9789352c-2.708908 0 -5.1583557 -0.6596451 -7.348343 -1.9789352c-2.1811981 -1.3280869 -3.8962555 -3.1531067 -5.145172 -5.4750595c-1.2401123 -2.330742 -1.8601837 -4.9253464 -1.8601837 -7.7838135c0 -2.9200287 0.6200714 -5.514633 1.8601837 -7.7838135c1.2489166 -2.2691803 2.963974 -4.0634155 5.145172 -5.3827057c2.1899872 -1.3280869 4.639435 -1.9921303 7.348343 -1.9921303zm-18.166397 -25.937252c-1.1873474 0 -2.1723938 0.3781929 -2.9551697 1.1345901c-0.7827606 0.75639343 -1.1741486 1.7546539 -1.1741486 2.9947891l0 36.966522c0.052764893 4.265709 1.0510101 8.100449 2.994751 11.504219c1.9437256 3.4037704 4.5910645 6.0951233 7.9420166 8.074059c3.3509674 1.9701385 7.1372833 2.9552078 11.358948 2.9552078c4.2656555 0 8.073959 -0.9850693 11.4249115 -2.9552078c3.3509521 -1.9789352 6.01149 -4.670288 7.981613 -8.074059c1.970108 -3.4037704 2.9551697 -7.23851 2.9551697 -11.504219c0 -4.274498 -0.90589905 -8.100441 -2.7177124 -11.477829c-1.8029938 -3.3773804 -4.2744446 -6.0511475 -7.4143066 -8.021286c-3.131073 -1.9701385 -6.6711273 -2.9552116 -10.620163 -2.9552116c-3.183838 0 -6.112625 0.6640434 -8.786362 1.9921303c-2.6737213 1.3192902 -4.95607 3.1135254 -6.8470306 5.3827057l0 -21.887032c0 -1.2401352 -0.3781891 -2.2383957 -1.1345673 -2.9947891c-0.7563782 -0.75639725 -1.7590332 -1.1345901 -3.0079498 -1.1345901z" fill-rule="evenodd"/><path stroke="#f3f3f3" stroke-width="1.0" stroke-linejoin="round" stroke-linecap="butt" d="m236.57014 35.895256c-1.4599915 0 -2.7176971 0.5277176 -3.773117 1.583149c-1.0466156 1.0554352 -1.569931 2.31316 -1.569931 3.7731743c0 1.4600143 0.5233154 2.717739 1.569931 3.7731705c1.0554199 1.0466385 2.3131256 1.5699539 3.773117 1.5699539c1.4600067 0 2.7177124 -0.5233154 3.7731323 -1.5699539c1.0554199 -1.0554314 1.5831299 -2.3131561 1.5831299 -3.7731705c0 -1.4600143 -0.52770996 -2.717739 -1.5831299 -3.7731743c-1.0554199 -1.0554314 -2.3131256 -1.583149 -3.7731323 -1.583149zm0 17.91597c-1.1873322 0 -2.1767883 0.37819672 -2.9683533 1.1345901c-0.7827759 0.75639343 -1.1741638 1.7590523 -1.1741638 3.0079803l0 36.069412c0 1.187355 0.39138794 2.1724243 1.1741638 2.9552078c0.79156494 0.7827835 1.7810211 1.1741714 2.9683533 1.1741714c1.2401276 0 2.2383728 -0.39138794 2.994751 -1.1741714c0.75639343 -0.7827835 1.1345825 -1.7678528 1.1345825 -2.9552078l0 -36.069412c0 -1.2489281 -0.3781891 -2.251587 -1.1345825 -3.0079803c-0.7563782 -0.75639343 -1.7546234 -1.1345901 -2.994751 -1.1345901z" fill-rule="evenodd"/><path stroke="#f3f3f3" stroke-width="1.0" stroke-linejoin="round" stroke-linecap="butt" d="m276.20755 60.79027c2.7528992 0 5.211151 0.6640434 7.374756 1.9921303c2.1636047 1.3192902 3.8654785 3.1267166 5.105591 5.422287c1.2401123 2.2955627 1.8601685 4.903366 1.8601685 7.823395c0 2.8584595 -0.62005615 5.439865 -1.8601685 7.744232c-1.2401123 2.2955704 -2.941986 4.1073914 -5.105591 5.435478c-2.1636047 1.3192902 -4.6218567 1.9789352 -7.374756 1.9789352c-2.7088928 0 -5.1583557 -0.6596451 -7.348358 -1.9789352c-2.1811829 -1.3280869 -3.9094238 -3.1399078 -5.184723 -5.435478c-1.26651 -2.3043594 -1.8997498 -4.885765 -1.8997498 -7.744232c0 -2.9200287 0.63323975 -5.527832 1.8997498 -7.823395c1.2752991 -2.2955704 3.00354 -4.102997 5.184723 -5.422287c2.1900024 -1.3280869 4.6394653 -1.9921303 7.348358 -1.9921303zm0 -7.295677c-4.2216797 0 -8.021179 0.9850731 -11.398529 2.9552116c-3.3773193 1.9701385 -6.051056 4.657097 -8.021179 8.060867c-1.970108 3.4037704 -2.9551697 7.2429047 -2.9551697 11.51741c0 4.265709 0.90589905 8.08725 2.7177124 11.46463c1.8117981 3.377388 4.2832336 6.0555496 7.4143066 8.034485c3.131073 1.9701385 6.6711426 2.9552078 10.620148 2.9552078c3.9402466 0 7.475891 -0.9850693 10.606964 -2.9552078c1.9310303 -1.2170563 3.6109009 -2.698578 5.0396423 -4.444565l0 0l0 3.0197296c0 1.1873627 0.39138794 2.172432 1.1741333 2.9552078c0.7827759 0.7827835 1.7678528 1.1741714 2.9552002 1.1741714c1.1873169 0 2.1723938 -0.39138794 2.9551697 -1.1741714c0.78274536 -0.7827759 1.1741333 -1.7678452 1.1741333 -2.9552078l0 -18.07428c0 -4.2745056 -0.9850464 -8.11364 -2.9551697 -11.51741c-1.9701233 -3.4037704 -4.6306458 -6.0907288 -7.981598 -8.060867c-3.3509521 -1.9701385 -7.1328735 -2.9552116 -11.345764 -2.9552116z" fill-rule="evenodd"/></g></svg>