<svg data-v-423bf9ae="" xmlns="http://www.w3.org/2000/svg" viewBox="0 0 258 90" class="iconLeft"><!----><!----><!----><g data-v-423bf9ae="" id="50650636-e0b8-493c-8a2e-ec19b7a1f007" fill="#342103" transform="matrix(5.958291572597482,0,0,5.958291572597482,104.4587950614373,-4.304865944131436)"><path d="M0.93 13.15L2.35 13.15L2.35 3.24L0.93 3.24ZM5.00 5.26C5.51 5.26 5.92 4.86 5.92 4.36C5.92 3.86 5.51 3.46 5.00 3.46C4.51 3.46 4.10 3.86 4.10 4.36C4.10 4.86 4.51 5.26 5.00 5.26ZM4.33 13.15L5.72 13.15L5.72 6.53L4.33 6.53ZM11.24 6.36C10.30 6.36 9.57 6.72 9.06 7.32L9.06 3.24L7.64 3.24L7.64 13.15L8.79 13.15L8.97 12.25C9.48 12.91 10.25 13.31 11.24 13.31C12.96 13.31 14.34 12.00 14.34 9.84C14.34 7.69 12.96 6.36 11.24 6.36ZM10.91 12.12C9.67 12.12 8.87 11.14 8.87 9.84C8.87 8.55 9.67 7.55 10.91 7.55C12.10 7.55 12.89 8.55 12.89 9.84C12.89 11.14 12.10 12.12 10.91 12.12ZM16.58 5.26C17.09 5.26 17.50 4.86 17.50 4.36C17.50 3.86 17.09 3.46 16.58 3.46C16.09 3.46 15.68 3.86 15.68 4.36C15.68 4.86 16.09 5.26 16.58 5.26ZM15.91 13.15L17.30 13.15L17.30 6.53L15.91 6.53ZM24.44 6.53L24.25 7.45C23.74 6.78 22.97 6.36 21.95 6.36C20.23 6.36 18.86 7.69 18.86 9.84C18.86 12.00 20.23 13.31 21.95 13.31C22.95 13.31 23.73 12.89 24.24 12.22L24.44 13.15L25.61 13.15L25.61 6.53ZM22.28 12.12C21.09 12.12 20.30 11.14 20.30 9.84C20.30 8.55 21.09 7.55 22.28 7.55C23.52 7.55 24.32 8.55 24.32 9.84C24.32 11.14 23.52 12.12 22.28 12.12Z"></path></g><defs data-v-423bf9ae=""><linearGradient data-v-423bf9ae="" gradientTransform="rotate(25)" id="4db3482c-aa16-4427-bd72-7ff04c5126d0" x1="0%" y1="0%" x2="100%" y2="0%"><stop data-v-423bf9ae="" offset="0%" style="stop-color: rgb(229, 101, 0); stop-opacity: 1;"></stop><stop data-v-423bf9ae="" offset="100%" style="stop-color: rgb(235, 197, 29); stop-opacity: 1;"></stop></linearGradient></defs><g data-v-423bf9ae="" id="5201d134-af03-45aa-b419-6183707985c9" transform="matrix(2.8125,0,0,2.8125,0,0)" stroke="none" fill="url(#4db3482c-aa16-4427-bd72-7ff04c5126d0)"><path d="M16 32c8.837 0 16-7.163 16-16S24.837 0 16 0 0 7.163 0 16s7.163 16 16 16zM14.817 6.421h2v8.886h8.887v2H14.817V6.421zm-5.959.437h2v14.283h14.283v2H8.858V6.858z"></path></g><!----></svg>